<?xml version="1.0" encoding="utf-8"?>
<svg viewBox="0 0 191.769 373.276" width="16px" height="16px" xmlns="http://www.w3.org/2000/svg" xmlns:bx="https://boxy-svg.com">
  <defs>
    <bx:grid x="50.425" y="19.916" width="10.096" height="10.096"/>
  </defs>
  <polygon style="stroke: rgb(0, 0, 0); stroke-linejoin: round; fill: rgb(255, 255, 255);" points="91.134 9.798 96.08 9.798 96.08 40.086 80.713 29.99">
    <title>Daanbantayan</title>
  </polygon>
  <polygon style="stroke: rgb(0, 0, 0); stroke-linejoin: round; fill: rgb(255, 255, 255);" points="80.713 29.99 80.713 50.182 86.484 50.182 96.08 40.086">
    <title>Medellin</title>
  </polygon>
  <polygon style="stroke: rgb(0, 0, 0); stroke-linejoin: round; fill: rgb(255, 255, 255);" points="80.713 50.182 70.617 50.182 70.617 70.374 65.469 90.566 80.713 90.566">
    <title>San Remigio</title>
  </polygon>
  <polygon style="stroke: rgb(0, 0, 0); stroke-linejoin: round; fill: rgb(255, 255, 255);" points="80.713 50.182 100.905 50.182 100.905 70.374 80.713 70.374">
    <title>Bogo</title>
  </polygon>
  <polygon style="stroke: rgb(0, 0, 0); stroke-linejoin: round; fill: rgb(255, 255, 255);" points="80.713 70.374 100.905 70.374 100.905 90.566 80.797 90.566">
    <title>Tabogon</title>
  </polygon>
  <polygon style="stroke: rgb(0, 0, 0); stroke-linejoin: round; fill: rgb(255, 255, 255);" points="80.713 90.502 80.713 110.758 65.469 110.758 65.469 90.566">
    <title>Tabuelan</title>
  </polygon>
  <polygon style="stroke: rgb(0, 0, 0); stroke-linejoin: round; fill: rgb(255, 255, 255);" points="80.713 90.502 100.905 90.502 100.905 110.694 80.713 110.694">
    <title>Sogod</title>
  </polygon>
  <polygon style="stroke: rgb(0, 0, 0); stroke-linejoin: round; fill: rgb(255, 255, 255);" points="80.713 110.694 80.649 151.142 50.425 151.168 60.521 130.95 65.469 110.758">
    <title>Tuburan</title>
  </polygon>
  <polygon style="stroke: rgb(0, 0, 0); stroke-linejoin: round; fill: rgb(255, 255, 255);" points="80.713 130.95 90.809 120.854 100.905 120.854 100.905 110.694 80.649 110.694">
    <title>Sogod</title>
  </polygon>
  <polygon style="stroke: rgb(0, 0, 0); stroke-linejoin: round; fill: rgb(255, 255, 255);" points="80.713 141.046 105.446 141.046 100.905 120.854 90.809 120.854 80.713 130.95">
    <title>Catmon</title>
  </polygon>
  <polygon style="stroke: rgb(0, 0, 0); stroke-linejoin: round; fill: rgb(255, 255, 255);" points="80.713 141.046 105.446 141.046 105.446 151.142 80.649 151.142">
    <title>Carmen</title>
  </polygon>
  <polygon style="stroke: rgb(0, 0, 0); stroke-linejoin: round; fill: rgb(255, 255, 255);" points="50.425 151.168 50.425 161.238 80.649 161.216 80.649 151.168">
    <title>Asturias</title>
  </polygon>
  <polygon style="stroke: rgb(0, 0, 0); stroke-linejoin: round; fill: rgb(255, 255, 255);" points="80.649 151.168 105.446 151.142 105.446 161.238 80.713 161.216">
    <title>Danao</title>
  </polygon>
  <polygon style="stroke: rgb(0, 0, 0); stroke-linejoin: round; fill: rgb(255, 255, 255);" points="50.425 161.238 50.425 171.329 60.521 177.225 80.625 166.306 80.625 161.238">
    <title>Balamban</title>
  </polygon>
  <polygon style="stroke: rgb(0, 0, 0); stroke-linejoin: round; fill: rgb(255, 255, 255);" points="50.425 171.334 35.296 191.548 50.425 191.548 60.521 184.527 60.521 177.225">
    <title>Toledo</title>
  </polygon>
  <polygon style="stroke: rgb(0, 0, 0); stroke-linejoin: round; fill: rgb(255, 255, 255);" points="35.296 191.548 35.296 211.74 50.425 211.718 50.425 191.548">
    <title>Pinamungahan</title>
  </polygon>
  <polygon style="stroke: rgb(0, 0, 0); stroke-linejoin: round; fill: rgb(255, 255, 255);" points="35.296 211.64 24.921 221.814 40.329 221.836 50.425 211.74">
    <title>Aloguinsan</title>
  </polygon>
  <polygon style="stroke: rgb(0, 0, 0); stroke-linejoin: round; fill: rgb(255, 255, 255);" points="24.921 221.836 24.921 232.02 15.239 242.028 30.233 242.006 40.329 231.91 40.329 221.836">
    <title>Barili</title>
  </polygon>
  <polygon style="stroke: rgb(0, 0, 0); stroke-linejoin: round; fill: rgb(255, 255, 255);" points="80.625 161.238 80.649 166.306 105.446 166.391 105.446 161.238">
    <title>Compostela</title>
  </polygon>
  <polygon style="stroke: rgb(0, 0, 0); stroke-linejoin: round; fill: rgb(255, 255, 255);" points="60.512 184.388 66.184 184.479 80.625 191.548 90.809 181.43 84.754 166.391 80.713 166.306 60.521 177.225">
    <title>Cebu City</title>
  </polygon>
  <polygon style="stroke: rgb(0, 0, 0); stroke-linejoin: round; fill: rgb(255, 255, 255);" points="84.778 166.306 86.939 171.334 105.446 171.334 105.446 166.391">
    <title>Liloan</title>
  </polygon>
  <polygon style="stroke: rgb(0, 0, 0); stroke-linejoin: round; fill: rgb(255, 255, 255);" points="89.101 177.203 100.905 177.225 105.446 171.334 86.81 171.334">
    <title>Consolacion</title>
  </polygon>
  <polygon style="stroke: rgb(0, 0, 0); stroke-linejoin: round; fill: rgb(255, 255, 255);" points="89.101 177.225 90.809 181.43 100.905 181.43 100.905 177.225">
    <title>Mandaue</title>
  </polygon>
  <polygon style="stroke: rgb(0, 0, 0); stroke-linejoin: round; fill: rgb(255, 255, 255);" points="60.521 184.527 66.187 184.527 80.625 191.548 70.617 191.526">
    <title>Talisay</title>
  </polygon>
  <polygon style="stroke: rgb(0, 0, 0); stroke-linejoin: round; fill: rgb(255, 255, 255);" points="50.425 191.548 70.617 196.45 70.617 191.548 60.305 184.527">
    <title>Minglanilla</title>
  </polygon>
  <polygon style="stroke: rgb(0, 0, 0); stroke-linejoin: round; fill: rgb(255, 255, 255);" points="70.617 196.423 70.617 201.637 50.425 201.637 50.425 191.526">
    <title>Naga</title>
  </polygon>
  <polygon style="stroke: rgb(0, 0, 0); stroke-linejoin: round; fill: rgb(255, 255, 255);" points="50.425 201.637 70.617 201.637 70.617 211.74 50.425 211.74">
    <title>San Fernando</title>
  </polygon>
  <polygon style="stroke: rgb(0, 0, 0); stroke-linejoin: round; fill: rgb(255, 255, 255);" points="50.425 211.64 40.329 221.814 40.329 231.932 55.291 231.932 70.617 221.836 70.617 211.74">
    <title>Carcar</title>
  </polygon>
  <polygon style="stroke: rgb(0, 0, 0); stroke-linejoin: round; fill: rgb(255, 255, 255);" points="15.239 242.028 15.239 252.102 30.233 252.124 30.233 242.028">
    <title>Dumanjug</title>
  </polygon>
  <polygon style="stroke: rgb(0, 0, 0); stroke-linejoin: round; fill: rgb(255, 255, 255);" points="40.329 231.91 30.233 242.028 30.233 252.124 50.425 252.124 55.068 231.932">
    <title>Sibonga</title>
  </polygon>
  <polygon style="stroke: rgb(0, 0, 0); stroke-linejoin: round; fill: rgb(255, 255, 255);" points="15.239 257.528 15.239 262.22 30.233 262.22 30.233 257.528">
    <title>Alcantara</title>
  </polygon>
  <polygon style="stroke: rgb(0, 0, 0); stroke-linejoin: round; fill: rgb(255, 255, 255);" points="15.239 252.124 15.239 257.525 30.233 257.528 30.233 252.124">
    <title>Ronda</title>
  </polygon>
  <polygon style="stroke: rgb(0, 0, 0); stroke-linejoin: round; fill: rgb(255, 255, 255);" points="10.041 262.22 10.041 272.294 30.233 272.426 30.233 262.198">
    <title>Moalboal</title>
  </polygon>
  <polygon style="stroke: rgb(0, 0, 0); stroke-linejoin: round; fill: rgb(255, 255, 255);" points="30.233 252.102 50.425 252.124 50.425 272.426 30.233 272.426">
    <title>Argao</title>
  </polygon>
  <polygon style="stroke: rgb(0, 0, 0); stroke-linejoin: round; fill: rgb(255, 255, 255);" points="30.233 272.426 15.239 272.426 15.239 287.365 30.233 287.365">
    <title>Badian</title>
  </polygon>
  <polygon style="stroke: rgb(0, 0, 0); stroke-linejoin: round; fill: rgb(255, 255, 255);" points="30.233 272.426 50.425 272.426 45.11 287.365 30.233 287.365">
    <title>Dalaguete</title>
  </polygon>
  <polygon style="stroke: rgb(0, 0, 0); stroke-linejoin: round; fill: rgb(255, 255, 255);" points="30.233 287.365 15.239 287.365 15.239 302.604 30.233 302.604">
    <title>Alegria</title>
  </polygon>
  <polygon style="stroke: rgb(0, 0, 0); stroke-linejoin: round; fill: rgb(255, 255, 255);" points="30.233 287.365 45.11 287.365 45.11 302.604 30.233 302.604">
    <title>Alcoy</title>
  </polygon>
  <polygon style="stroke: rgb(0, 0, 0); stroke-linejoin: round; fill: rgb(255, 255, 255);" points="30.233 302.604 15.239 302.604 15.239 317.513 30.233 317.513">
    <title>Malabuyoc</title>
  </polygon>
  <polygon style="stroke: rgb(0, 0, 0); stroke-linejoin: round; fill: rgb(255, 255, 255);" points="30.233 302.582 45.11 302.582 45.11 317.513 30.233 317.513">
    <title>Boljoon</title>
  </polygon>
  <polygon style="stroke: rgb(0, 0, 0); stroke-linejoin: round; fill: rgb(255, 255, 255);" points="15.239 317.513 10.041 332.87 25.035 332.87 30.233 317.513">
    <title>Ginatilan</title>
  </polygon>
  <polygon style="stroke: rgb(0, 0, 0); stroke-linejoin: round; fill: rgb(255, 255, 255);" points="25.035 332.87 10.041 332.87 10.041 347.297 25.035 347.297">
    <title>Samboan</title>
  </polygon>
  <polygon style="stroke: rgb(0, 0, 0); stroke-linejoin: round; fill: rgb(255, 255, 255);" points="25.035 347.297 10.041 347.297 15.545 363.158 25.035 363.18">
    <title>Santander</title>
  </polygon>
  <polygon style="stroke: rgb(0, 0, 0); stroke-linejoin: round; fill: rgb(255, 255, 255);" points="30.233 317.513 25.035 332.87 25.035 363.18 40.329 342.966 45.11 317.513">
    <title>Oslob</title>
  </polygon>
  <g transform="matrix(1, 0, 0, 1, -60.575996, -20.213987)">
    <title>Lapu-lapu</title>
    <polygon style="stroke: rgb(0, 0, 0); stroke-linejoin: round; fill: rgb(255, 255, 255);" points="156.379 204.741 161.481 204.741 161.481 211.74 157.476 211.74 157.476 216.664 151.385 211.762">
      <title>Mactan</title>
    </polygon>
    <polygon style="stroke: rgb(0, 0, 0); stroke-linejoin: round; fill: rgb(255, 255, 255);" points="167.6 204.741 171.577 204.741 171.577 211.74 167.584 211.762">
      <title>Olango</title>
    </polygon>
  </g>
  <polygon style="stroke: rgb(0, 0, 0); stroke-linejoin: round; fill: rgb(255, 255, 255);" points="96.902 191.548 100.905 191.548 100.905 196.45 96.9 196.45">
    <title>Cordova</title>
  </polygon>
  <polygon style="stroke: rgb(0, 0, 0); stroke-linejoin: round; fill: rgb(255, 255, 255);" points="164.155 120.854 174.554 120.854 174.554 135.932 163.984 135.932">
    <title>Poro</title>
  </polygon>
  <path style="stroke: rgb(0, 0, 0); stroke-linejoin: round; fill: rgb(255, 255, 255);" d="M 151.385 130.95 L 151.385 120.854 L 161.481 120.854 L 161.481 135.932 L 151.385 141.046 L 147.344 137.586 L 151.385 130.95 Z">
    <title>San Francisco</title>
  </path>
  <polygon style="stroke: rgb(0, 0, 0); stroke-linejoin: round; fill: rgb(255, 255, 255);" points="174.554 120.854 181.673 123.06 181.673 132.433 174.554 135.932">
    <title>Tudela</title>
  </polygon>
  <polygon style="stroke: rgb(0, 0, 0); stroke-linejoin: round; fill: rgb(255, 255, 255);" points="180.676 100.662 185.84 100.662 180.676 114.973 174.554 115.086">
    <title>Pilar</title>
  </polygon>
  <polygon style="stroke: rgb(0, 0, 0); stroke-linejoin: round; fill: rgb(255, 255, 255);" points="40.329 25.186 40.329 40.086 50.425 40.086 50.425 25.186">
    <title>Bantayan</title>
  </polygon>
  <polygon style="stroke: rgb(0, 0, 0); stroke-linejoin: round; fill: rgb(255, 255, 255);" points="50.425 33.036 57.388 37.236 57.388 40.086 50.425 40.086">
    <title>Santa Fe</title>
  </polygon>
  <path style="stroke: rgb(0, 0, 0); stroke-linejoin: round; fill: rgb(255, 255, 255);" d="M 40.329 25.186 L 50.425 25.186 L 46.407 17.232 L 43.857 17.232 L 40.329 25.186 Z">
    <title>Madridejos</title>
  </path>
</svg>